HIERARCHY
ROOT Hips
{
	OFFSET -14.64140 90.27770 -84.91600
	CHANNELS 6 Xposition Yposition Zposition Zrotation Xrotation Yrotation
	JOINT Spine
	{
		OFFSET 0.00000 13.20850 -1.60436
		CHANNELS 3 Zrotation Xrotation Yrotation
		JOINT Spine1
		{
			OFFSET 0.00000 8.61716 0.00000
			CHANNELS 3 Zrotation Xrotation Yrotation
			JOINT Spine2
			{
				OFFSET 0.00000 8.61717 0.00000
				CHANNELS 3 Zrotation Xrotation Yrotation
				JOINT Spine3
				{
					OFFSET 0.00000 8.61717 0.00000
					CHANNELS 3 Zrotation Xrotation Yrotation
					JOINT Neck
					{
						OFFSET 0.00000 11.07920 1.10792
						CHANNELS 3 Zrotation Xrotation Yrotation
						JOINT Neck1
						{
							OFFSET 0.00000 7.08032 0.00000
							CHANNELS 3 Zrotation Xrotation Yrotation
							JOINT Head
							{
								OFFSET 0.00000 7.08031 0.00000
								CHANNELS 3 Zrotation Xrotation Yrotation
								End site
								{
									OFFSET 0.00000 0.00000 0.00000
								}
							}
						}
					}
					JOINT RightShoulder
					{
						OFFSET -0.01000 7.91373 5.19711
						CHANNELS 3 Zrotation Xrotation Yrotation
						JOINT RightArm
						{
							OFFSET -18.41580 0.00000 0.00000
							CHANNELS 3 Zrotation Xrotation Yrotation
							JOINT RightForeArm
							{
								OFFSET -29.11090 0.00000 0.00000
								CHANNELS 3 Zrotation Xrotation Yrotation
								JOINT RightHand
								{
									OFFSET -24.65040 0.00000 0.00000
									CHANNELS 3 Zrotation Xrotation Yrotation
									JOINT RightHandThumb1
									{
										OFFSET -5.35114 -0.85590 3.97906
										CHANNELS 3 Zrotation Xrotation Yrotation
										JOINT RightHandThumb2
										{
											OFFSET -4.52789 0.00000 0.00000
											CHANNELS 3 Zrotation Xrotation Yrotation
											JOINT RightHandThumb3
											{
												OFFSET -2.46976 0.00000 0.00000
												CHANNELS 3 Zrotation Xrotation Yrotation
												End site
												{
													OFFSET 0.00000 0.00000 0.00000
												}
											}
										}
									}
									JOINT RightHandIndex1
									{
										OFFSET -14.26970 0.00000 2.88139
										CHANNELS 3 Zrotation Xrotation Yrotation
										JOINT RightHandIndex2
										{
											OFFSET -5.48836 0.00000 0.00000
											CHANNELS 3 Zrotation Xrotation Yrotation
											JOINT RightHandIndex3
											{
												OFFSET -3.01859 0.00000 0.00000
												CHANNELS 3 Zrotation Xrotation Yrotation
												End site
												{
													OFFSET 0.00000 0.00000 0.00000
												}
											}
										}
									}
									JOINT RightHandMiddle1
									{
										OFFSET -14.26970 0.00000 -0.09147
										CHANNELS 3 Zrotation Xrotation Yrotation
										JOINT RightHandMiddle2
										{
											OFFSET -6.17441 0.00000 0.00000
											CHANNELS 3 Zrotation Xrotation Yrotation
											JOINT RightHandMiddle3
											{
												OFFSET -3.56743 0.00000 0.00000
												CHANNELS 3 Zrotation Xrotation Yrotation
												End site
												{
													OFFSET 0.00000 0.00000 0.00000
												}
											}
										}
									}
									JOINT RightHandRing1
									{
										OFFSET -12.69180 0.00000 -3.06433
										CHANNELS 3 Zrotation Xrotation Yrotation
										JOINT RightHandRing2
										{
											OFFSET -5.62556 0.00000 0.00000
											CHANNELS 3 Zrotation Xrotation Yrotation
											JOINT RightHandRing3
											{
												OFFSET -3.56744 0.00000 0.00000
												CHANNELS 3 Zrotation Xrotation Yrotation
												End site
												{
													OFFSET 0.00000 0.00000 0.00000
												}
											}
										}
									}
									JOINT RightHandPinky1
									{
										OFFSET -11.11390 0.00000 -6.03719
										CHANNELS 3 Zrotation Xrotation Yrotation
										JOINT RightHandPinky2
										{
											OFFSET -4.52789 0.00000 0.00000
											CHANNELS 3 Zrotation Xrotation Yrotation
											JOINT RightHandPinky3
											{
												OFFSET -2.46976 0.00000 0.00000
												CHANNELS 3 Zrotation Xrotation Yrotation
												End site
												{
													OFFSET 0.00000 0.00000 0.00000
												}
											}
										}
									}
								}
							}
						}
					}
					JOINT LeftShoulder
					{
						OFFSET 0.01000 7.91373 5.19711
						CHANNELS 3 Zrotation Xrotation Yrotation
						JOINT LeftArm
						{
							OFFSET 18.41580 0.00000 0.00000
							CHANNELS 3 Zrotation Xrotation Yrotation
							JOINT LeftForeArm
							{
								OFFSET 29.11090 0.00000 0.00000
								CHANNELS 3 Zrotation Xrotation Yrotation
								JOINT LeftHand
								{
									OFFSET 24.65040 0.00000 0.00000
									CHANNELS 3 Zrotation Xrotation Yrotation
									JOINT LeftHandThumb1
									{
										OFFSET 5.35114 -0.85590 3.97906
										CHANNELS 3 Zrotation Xrotation Yrotation
										JOINT LeftHandThumb2
										{
											OFFSET 4.52789 0.00000 0.00000
											CHANNELS 3 Zrotation Xrotation Yrotation
											JOINT LeftHandThumb3
											{
												OFFSET 2.46977 0.00000 0.00000
												CHANNELS 3 Zrotation Xrotation Yrotation
												End site
												{
													OFFSET 0.00000 0.00000 0.00000
												}
											}
										}
									}
									JOINT LeftHandIndex1
									{
										OFFSET 14.26970 0.00000 2.88139
										CHANNELS 3 Zrotation Xrotation Yrotation
										JOINT LeftHandIndex2
										{
											OFFSET 5.48836 0.00000 0.00000
											CHANNELS 3 Zrotation Xrotation Yrotation
											JOINT LeftHandIndex3
											{
												OFFSET 3.01859 0.00000 0.00000
												CHANNELS 3 Zrotation Xrotation Yrotation
												End site
												{
													OFFSET 0.00000 0.00000 0.00000
												}
											}
										}
									}
									JOINT LeftHandMiddle1
									{
										OFFSET 14.26970 0.00000 -0.09147
										CHANNELS 3 Zrotation Xrotation Yrotation
										JOINT LeftHandMiddle2
										{
											OFFSET 6.17440 0.00000 0.00000
											CHANNELS 3 Zrotation Xrotation Yrotation
											JOINT LeftHandMiddle3
											{
												OFFSET 3.56744 0.00000 0.00000
												CHANNELS 3 Zrotation Xrotation Yrotation
												End site
												{
													OFFSET 0.00000 0.00000 0.00000
												}
											}
										}
									}
									JOINT LeftHandRing1
									{
										OFFSET 12.69180 0.00000 -3.06433
										CHANNELS 3 Zrotation Xrotation Yrotation
										JOINT LeftHandRing2
										{
											OFFSET 5.62556 0.00000 0.00000
											CHANNELS 3 Zrotation Xrotation Yrotation
											JOINT LeftHandRing3
											{
												OFFSET 3.56744 0.00000 0.00000
												CHANNELS 3 Zrotation Xrotation Yrotation
												End site
												{
													OFFSET 0.00000 0.00000 0.00000
												}
											}
										}
									}
									JOINT LeftHandPinky1
									{
										OFFSET 11.11390 0.00000 -6.03719
										CHANNELS 3 Zrotation Xrotation Yrotation
										JOINT LeftHandPinky2
										{
											OFFSET 4.52789 0.00000 0.00000
											CHANNELS 3 Zrotation Xrotation Yrotation
											JOINT LeftHandPinky3
											{
												OFFSET 2.46976 0.00000 0.00000
												CHANNELS 3 Zrotation Xrotation Yrotation
												End site
												{
													OFFSET 0.00000 0.00000 0.00000
												}
											}
										}
									}
								}
							}
						}
					}
					JOINT pCube4
					{
						OFFSET 0.00000 10.91090 1.10792
						CHANNELS 3 Zrotation Xrotation Yrotation
						End site
						{
							OFFSET 0.00000 0.00000 0.00000
						}
					}
				}
			}
		}
	}
	JOINT RightUpLeg
	{
		OFFSET -9.98441 0.00000 0.00000
		CHANNELS 3 Zrotation Xrotation Yrotation
		JOINT RightLeg
		{
			OFFSET 0.00000 -42.11790 0.00000
			CHANNELS 3 Zrotation Xrotation Yrotation
			JOINT RightFoot
			{
				OFFSET 0.00000 -45.00020 -0.00001
				CHANNELS 3 Zrotation Xrotation Yrotation
				JOINT RightForeFoot
				{
					OFFSET 0.00000 -3.74820 0.00000
					CHANNELS 3 Zrotation Xrotation Yrotation
					JOINT RightToeBase
					{
						OFFSET 0.00000 0.06325 14.43120
						CHANNELS 3 Zrotation Xrotation Yrotation
						End site
						{
							OFFSET 0.00000 0.00000 0.00000
						}
					}
				}
			}
		}
	}
	JOINT LeftUpLeg
	{
		OFFSET 9.98441 0.00000 0.00000
		CHANNELS 3 Zrotation Xrotation Yrotation
		JOINT LeftLeg
		{
			OFFSET 0.00000 -42.11800 0.00000
			CHANNELS 3 Zrotation Xrotation Yrotation
			JOINT LeftFoot
			{
				OFFSET 0.00000 -45.00070 0.00000
				CHANNELS 3 Zrotation Xrotation Yrotation
				JOINT LeftForeFoot
				{
					OFFSET 0.00000 -3.74824 0.00000
					CHANNELS 3 Zrotation Xrotation Yrotation
					JOINT LeftToeBase
					{
						OFFSET 0.00000 0.06325 14.43110
						CHANNELS 3 Zrotation Xrotation Yrotation
						End site
						{
							OFFSET 0.00000 0.00000 0.00000
						}
					}
				}
			}
		}
	}
}
MOTION
Frames: 4
Frame Time: 0.050000
0.002966445210115741 0.024049692609860847 0.014135325107708244 0.011331431851118394 0.028355224693250608 0.03309748110939844 -3.206617403208625 2.0542912194604446 -0.6124787214689306 -1.091962608191115 3.832886154313911 0.3707735143442173 -0.9746781284686014 -1.8110206489926504 -2.2171992047180606 -0.9224728215502475 0.5313394820933952 -0.9137640205221377 -2.270923926088545 13.656017939963123 5.424212063404308 -0.5160151821329367 -0.7777228651993143 11.559460320452205 -2.1083637191838887 -16.6054754645558 1.0565868806977763 -3.8772330057751114 1.5772082850474822 -13.205121471704548 73.01858412598499 20.254977759273267 10.309979378420246 11.62834100820316 5.6227510265894525 70.71157815547762 18.166116910682323 -0.39978639492627394 -3.745139484277036 4.551494147087481 -0.1282395606470047 -1.6294465057995708 -0.014576984337609364 0.019118278450509646 -56.202386185424444 0.017327603059733458 -0.003891216561640028 -56.19100080313588 -38.79693282218076 -0.03144422737021918 0.039048843140288066 0.007560655402025633 -0.030528338725741642 0.028046585007537615 -0.017911012421158286 0.002275675760238521 0.03661888698793505 -36.70403682173027 0.0322545264276792 0.02263010171398835 -0.0012606314322270982 0.042903424395242376 0.014579253737019309 -0.02058394971144105 -0.02764299924809905 0.0034175433546946446 -19.753133761877965 0.018051238289367267 0.0017226708375294418 -0.013184587563082953 -0.04236285403251034 -0.021940008977523545 -0.045954348974450714 -0.008568032281826968 -0.03827043333909324 24.039296054399962 -0.003984620221570863 -0.02462091832290561 28.866817532615297 0.01777855379010348 -0.021750794390060602 28.88529853400088 -0.03379273135826734 0.003132628052033662 10.274902576413462 2.094437705671085 12.351775137466634 -70.65021116939027 8.505719756973262 -28.68474937818466 -65.41605400344285 9.638869409990797 -92.08014712462457 -7.374976697854101 2.39355649156201 -2.060489643453244 -0.4513023477590929 0.061703362392441785 -8.094182728852946 -0.021566304654368842 -0.0469112457230319 44.530005667227165 -0.010197686396254724 0.017456268526108255 44.584339801064566 12.486999378779773 0.036216306648164324 -0.011905171206046554 0.015845232002555627 0.04586518748977749 -0.02749279771821667 0.02006650742563936 -0.03894997994611259 0.020608853794552906 11.09620262450127 -0.006119243371417247 -0.02871332783307117 -0.004774113048905695 0.005973730636913954 0.040821945881214086 0.010141196426685255 -0.020096387274395743 0.0070276065534456995 4.812083483628012 0.000701704981159192 -0.04470729795914857 0.008944279497337155 0.03311477593116076 0.009700551362516867 -0.022056374515349957 -0.02817809705125045 -0.02001799609551583 -5.590643933699285 -0.009491833633755267 -0.02956441187972201 -6.6977340941513805 -0.03289362693708874 0.006404032886414135 -6.737646301885784 0.016246514848424487 -0.010641955493821383 0.03453704929165049 0.018656979136295875 -0.02217852509819764 8.03606105754693 3.5401110683870174 -19.252821925643072 -0.04312951019289215 10.36265950960377 0.02033809427083947 -5.6188827328524384 -15.618703168214166 3.155612720799145 -0.04550298803761243 0.038376131556145575 0.024619725338949204 -0.00731888982288527 4.737835952538892 -0.011803428696117576 12.449894760762897 -8.286004145320137 6.904097656152492 0.012249306104626632 46.422746560417075 0.0026179884421712925 -4.316823555240864 -14.757080468025912 -3.787870603748124 0.0029564940559353545 -0.001910357287302819 0.032844317660741806 0.018742894872068677 -10.765613444946531 0.041043023118034455 
-0.03911840378697945 0.0008078506129533854 0.023260562324988878 0.0012849623279784306 -0.03192940586861805 -0.0025470035636988627 -3.1084572670777257 2.1356455369079015 -0.6683063972997555 -1.0159026246360152 3.8599039470470053 0.3763134462168915 -1.049394176991927 -1.7440358546259769 -2.0830374181394586 -0.8516046544461277 0.5194899328231 -0.9843305049521802 -2.121764045407851 13.678497790434838 4.945413648215365 -0.5512964387271461 -0.8021937308714155 10.371774019503727 -1.8945186781231582 -16.558630303979808 0.9590124651416371 -4.134809218067501 1.6898900942737827 -13.245906928924056 73.08494301337186 18.420358463062893 11.370248766914019 12.411457316751706 6.011909662189008 71.92359333885959 17.208578478638252 -0.3540234270771604 -3.427732891845429 4.509084105521415 -0.1726816414959246 -1.6047929683879432 -0.024051291663094714 0.033431190971336254 -56.23051253533033 0.026411663012675883 -0.03775072572107061 -56.2023412918119 -38.772942694301946 -0.0014400565998345647 0.0023799458412130476 -0.024845078025826216 0.025194324423136287 -0.035668577896123405 -0.021096098679294715 0.03886721289864203 0.009287305976488759 -36.69122690290041 0.0023820639189040243 0.03649598861929069 0.01453070350815311 0.031102337673580185 0.001104673259948604 -0.03493515456316591 0.023919611395283112 -0.03150371152759352 -19.798309461666967 -0.04676706264497378 0.041310079555007775 -0.034042065893526326 -0.04593452811621646 0.048332487164435424 -0.02365905279821273 0.037325739909725895 0.013023397777514273 24.03579234394548 -0.04500138860293058 -0.044569782139890025 28.832813292815242 -0.03821707826559865 0.032777661198978354 28.861444399278746 -0.04178431703168048 0.028779651357698048 10.139530383708685 2.0801337836712874 12.44294753537672 -70.54114532110653 8.249859297732561 -28.296423712817397 -64.10695332990181 10.151052982561877 -92.2073830914194 -6.922011299190764 2.7478316960895954 -2.3051406837682302 -0.45658492522253924 0.0353227085652106 -8.08291498673644 0.004878422024290455 0.046691867922685336 44.603147067978036 0.0033533134209290417 0.014225536925856519 44.527321278024466 12.462774674220888 0.0480062248301643 0.03510836513963406 -0.029023158603134612 -0.013018994796097498 0.007682546307334289 0.026123356521318215 0.03276843092377081 -0.03020062444257271 11.127424695502192 0.02024831442876224 0.03586345469493204 -0.030065574910542077 0.008756302890050239 0.04549400216694943 -0.00876039181026001 -0.00809351115341422 -0.04693696168255594 4.756397348785981 -0.03850774145956326 -0.01379832038828195 -0.022242546132925665 0.012245092753947556 -0.021962150985484857 0.0325787608887487 0.017803588292092283 -0.015081422413824055 -5.605899553199612 0.017651533652464278 -0.03502010302333861 -6.692338004254929 -0.010107651655368154 0.04574713148319759 -6.689344375009379 0.006718871628808656 0.03133092504307176 -0.015373362744630973 0.012382799691538509 -0.029509891093850868 8.07516456174543 3.479451761249583 -19.23574387636772 0.04358039669845386 10.374581441707218 0.018669405560608334 -5.6046357871692605 -15.664355062794684 3.200135340267924 0.04416789456713834 -0.020606635944228097 0.004446048670045383 0.023969796465672398 4.726635192968 0.03537630691008624 12.48182703851578 -8.1916879077435 6.9085797420463715 0.029077722878671598 46.39718788309706 0.0409473281772594 -4.374804122801045 -14.793063881095996 -3.833714408931755 0.042103948192159305 0.01745766597547162 -0.039566497816682124 0.0229443317464947 -10.736035719911403 -0.01612035274742322 
-0.016662660455406084 -0.018138990952443448 0.03627384158511659 -0.02721538317911873 -0.010691118918598544 0.006568007563126022 -3.071188717911024 2.173305883682389 -0.6441261626004982 -1.0770380059926408 3.806332292927183 0.35580501980989215 -1.0053710957658823 -1.754030711094321 -1.977264965073265 -0.7375270673224062 0.5121708979399352 -0.8818268102558504 -1.9591274762324078 13.696044726327612 4.457051330523701 -0.5738630698800959 -0.7383537041572596 9.21808567762146 -1.836681878994064 -16.470480315749974 0.8135133132477294 -4.349831907676777 1.7025458350478355 -13.360326900762676 72.99710542937805 16.85103477185806 12.15167273232739 12.887677769590757 6.018226644856254 72.1784011262504 16.266114002983578 -0.32765790714429216 -3.075434827590555 4.56502914038524 -0.17192993157088834 -1.6248892064741154 -0.015384528703556806 -0.014276048842546046 -56.283726472559515 -0.03708500530366551 0.02058161180777942 -56.27434372094949 -38.737171394629655 0.041641739281784905 0.008514738644074996 -0.03707917189158812 -0.029065239534352603 0.039018146125008486 0.03639363696946497 -0.04637193090431073 -0.006112523299149901 -36.667766526460206 0.04730673563170562 -0.015653742552932073 0.042404829600041265 0.017918471204055035 -0.0442061226153656 0.005952053086496576 -0.02042267790139223 -0.02690487535655335 -19.740721297257675 0.01881347296410836 -0.015441382242782315 -0.04223252435872153 -0.024893096039866138 0.024333988049140595 -0.018373077024964206 0.005891770152175958 -0.02215415107589248 24.09574465173797 0.02486684688268676 0.015366610509402613 28.83105440082198 0.009428237761479647 -0.00728388141660067 28.860650579450137 0.0034778442546077076 -0.006897534973425684 9.856785843356873 2.1002061727300236 12.4751652875708 -70.20506163283252 8.846923186428384 -27.59524277388512 -60.80989609205465 10.550482482447938 -91.10522521180116 -6.639987781719395 2.9763519641200618 -2.557915764633692 -0.4649850161458816 0.08649434080278437 -8.097071641878104 0.015126809962009978 -0.0461216807036394 44.58515290034908 -0.003934958884161854 -0.026831384217017043 44.58796110990988 12.493120852020102 -0.028232359424188377 0.02323196633199696 -0.003585388013182499 0.0024196279057514653 -0.025929653400816342 0.024423035616583197 -0.042684585446411426 -0.03288230892919126 11.141663428213015 0.03246413490813868 -0.007007865638537487 -0.04050094059222327 0.007798459751318913 0.03348084213994749 -0.03872780642485127 -0.025381404544667155 -0.01949286065292546 4.723299887812361 -0.04323140810008304 0.025628783783817426 0.023665692289942843 -0.04254490160679325 -0.011047938317114944 0.0331344765946993 0.04233825661130362 -0.011774983214237741 -5.590089082246211 0.015912595331122627 -0.03511404619180968 -6.682977931813763 0.02978513311341392 -0.0005297588173527707 -6.700674553321747 0.04040440422233843 -0.017449903222637838 0.025600924452601027 0.03024505496671533 0.021786022426314597 8.080663592669945 3.470422547702187 -19.195783544189855 -0.0417996232196994 10.346747939966546 0.00727060728745641 -5.582486362007598 -15.648314193848465 3.194782823125951 0.00978310315934349 -0.0005579422210417875 -0.026019243069742834 -0.021231860922357272 4.691758929316787 -0.00845308938593679 12.490039160623283 -8.275337336694049 6.904064950111032 -0.04789907517355968 46.4130722601339 0.008088989994521201 -4.338926706025778 -14.732234369344843 -3.8712446194394468 0.02712481840831812 -0.039140374106435 0.003212680713551715 -0.04180475323937254 -10.739794948840231 0.010268154713873958 
0.02594354742970071 0.018716097902700186 -0.002672577550450867 -0.024010903740343266 0.0035114164584929505 -0.04001706164054658 -3.0644228677480925 2.140609239215857 -0.6968749035555526 -1.1120123348858053 3.8519024693699473 0.3487409271242401 -1.0798546047538018 -1.7780261966800721 -1.9190842361354015 -0.6398162942062949 0.5430135798474748 -0.9476303492752387 -1.866723417762334 13.765822620449343 4.122971687589847 -0.5033809800217952 -0.6851283640174329 8.186371737614722 -1.6849024861614335 -16.461510935390777 0.7241371335566694 -4.518652262100567 1.732822282283741 -13.354686280014807 72.97906232829953 16.497206350687772 12.116510303006015 12.027596586763632 5.80030685932345 69.85150275236043 15.625957504616345 -0.26553540805283776 -2.6214470076453935 4.5122163957944075 -0.17466948187727566 -1.5634897297225034 -0.006645952390183365 -0.023226912263274724 -56.25944470753283 -0.0419063772442202 -0.025512411106815944 -56.24295927305498 -38.79449106693443 -0.04427421831371632 -0.01695782619706261 0.025731244884214126 0.03510100422001041 -0.03870194342560308 -0.046276432836282744 -0.017543810475952923 -0.03159541430930582 -36.675095915854506 0.009998485869131515 -0.03339034565028377 -0.03424467373168349 0.005119440285411021 0.025162382976253166 -0.024721781686325408 -0.035342461227312556 0.04050244272381519 -19.735800628377326 0.0012857824096901536 -0.0047237226307209924 0.03416253753968402 0.04754873945906337 0.04838253540907757 0.03764665656497375 -0.032317501044472 -0.028128457215511576 24.00458713412907 0.010296859828283347 0.007478053059358482 28.839975744390998 0.026851920722997035 -0.03650877408076543 28.914918947660862 -0.0011970344781841785 0.010649215572029946 9.715472768120579 2.0220863456294556 12.464830387984838 -69.91355035077066 9.795635677318224 -26.866939343424008 -56.65092865416228 11.041353414663174 -88.43361964571626 -6.302326223766118 3.074719912665496 -2.5186795234807597 -0.4994990651670231 0.09203486110849819 -8.088727119018436 0.03494997439390701 -0.04913655949977413 44.61060619685748 -0.036464685158651255 -0.01898565637700457 44.569514861809886 12.43478836431209 -0.03540539542436733 -0.013750384833864222 -0.020720912627898803 -0.04962522061258764 -0.012229789992113185 0.014112446238698083 0.046253331626163165 -0.04240469883880269 11.059761239738158 -0.030739218802504117 0.013179362552941085 -0.02659866851451677 0.015835879471198733 0.025677689976569034 -0.03366499682981649 -0.04470962887041117 -0.03056284781846069 4.787907383923417 -0.020143742650889324 0.015534297644991622 0.022205428516618515 0.016861532937838312 -0.038744030791059716 0.03080945726707318 0.03034447742730872 0.0011821251059768402 -5.650408797773824 0.04591270379199681 0.04109538898079926 -6.722119348018261 -0.03815082330561643 -0.045350120242901054 -6.717986474449005 0.04639446791168646 -0.026182901554202918 -0.0372343926382373 -0.006252974020464536 -0.04511060976826366 8.024101697824898 3.450405285463641 -19.2653818789713 0.040581894924368186 10.366072505243777 0.0631182779172753 -5.571551001813999 -15.618205557503305 3.163386697634061 0.007111030534907631 -0.014770968769497225 -0.020627125676105695 0.021850469314876365 4.743753646704618 0.013660049903454553 12.445150513326935 -8.26686504291609 6.921625243353379 -0.023346011382767238 46.397764384068886 -0.042606679587693805 -4.332847558521283 -14.698778904501014 -3.8495783639907257 0.0034047611535811305 0.004333149329371795 -0.029168186994904845 -0.01353651373199883 -10.777187391871301 -0.007041805122331327 
